# xmcd
#
# Track frame offsets:
#	150
#	17658
#	33093
#	50791
#	65826
#	82914
#	97374
#	116211
#	133371
#	158884
#
# Disc length: 2375 seconds
# Revision: 0
# Processed by: cddbd v1.5.2PL0 Copyright (c) Steve Scherf et al.
# Submitted via: dBpowerAMP V12.0
#
DISCID=9009450a
DTITLE=Plastic Spurs - First Crack of The Whip
DYEAR=1900
DGENRE=Country
TTITLE0=Missen You
TTITLE1=Yes
TTITLE2=Chattahoochee
TTITLE3=To Her Door
TTITLE4=Somebody Like You
TTITLE5=The Night I Called The old Man Out
TTITLE6=Alcohol
TTITLE7=Thunder Rolls
TTITLE8=Apache
TTITLE9=Making Memories of Us
EXTD=
EXTT0=
EXTT1=
EXTT2=
EXTT3=
EXTT4=
EXTT5=
EXTT6=
EXTT7=
EXTT8=
EXTT9=
PLAYORDER=
